<svg xmlns="http://www.w3.org/2000/svg" viewBox="0 0 39 39" fill="none" class="fanvue-icon fanvue-icon-agent text-brand-secondary-default size-14 shrink-0" aria-hidden="true"><circle cx="19.5" cy="19.5" r="19.5" fill="currentColor" style="&#10;    fill: #55f36e;&#10;"/><path fill-rule="evenodd" clip-rule="evenodd" d="M12.277 30.582c-.835 0-1.241-.716-1.071-1.467.222-1.023 1.378-4.06.508-5.425-1.278-1.996-4.458-1.706-5.174-2.73-.516-.751-.056-1.482.657-1.91 1.603-1.024 4.705-.734 7.722-2.748 1.67-1.091 3.205-3.31 4.074-4.64 1.227-1.877 1.756-2.27 4.33-2.27h9.015c1.42 0 1.864 2.412-.453 2.677-.596.068-2.187.307-4.454.58-2.165.273-6.972.924-5.08 4.012 1.415 1.62 4.398 1.416 5.08 2.388.493.674.056 1.39-.48 1.733-1.62 1.024-5.077.912-8.094 2.908-2.046 1.365-3.71 4.402-4.391 5.425-.494.75-1.337 1.468-2.172 1.468h-.017Z" fill="#151515"/></svg>